<?xml version="1.0" encoding="iso-8859-1"?>
<!-- Generator: Adobe Illustrator 19.0.0, SVG Export Plug-In . SVG Version: 6.00 Build 0)  -->
<svg version="1.1" id="Capa_1" xmlns="http://www.w3.org/2000/svg" xmlns:xlink="http://www.w3.org/1999/xlink" x="0px" y="0px"
	 viewBox="0 0 512.006 512.006" style="enable-background:new 0 0 512.006 512.006;" xml:space="preserve">
<g>
	<g>
		<path d="M370.037,296.152c-12.527-1.647-24.883-4.719-36.693-9.122c-13.107-4.898-28.006-1.741-37.999,8.115l-12.774,12.74
			c-28.681-17.451-52.804-41.523-70.306-70.144l12.792-12.766c9.847-9.95,13.03-24.832,8.107-37.905
			c-4.42-11.819-7.501-24.141-9.156-36.719c-2.517-17.783-17.877-31.317-35.908-30.899h-41.19c-1.075,0-2.15,0.051-3.208,0.154
			c-9.574,0.853-18.236,5.393-24.397,12.757c-6.161,7.381-9.079,16.708-8.201,26.402c4.625,43.477,19.661,85.854,43.435,122.487
			c21.606,33.937,50.995,63.275,84.941,84.804c36.582,23.671,78.839,38.682,122.377,43.401c1.109,0.102,2.219,0.145,3.362,0.145
			c9.617-0.034,18.637-3.806,25.412-10.641c6.775-6.81,10.479-15.855,10.445-25.421V332.53
			C401.473,314.328,388.178,298.704,370.037,296.152z M384.023,332.453v41.139c0.017,5.035-1.929,9.779-5.487,13.363
			c-3.558,3.584-8.303,5.564-13.329,5.581c-0.614,0-1.229-0.026-1.673-0.06c-40.721-4.412-80.401-18.509-114.833-40.789
			c-31.906-20.233-59.486-47.761-79.795-79.65c-22.366-34.458-36.48-74.24-40.815-114.927c-0.461-5.018,1.075-9.916,4.309-13.781
			c3.243-3.874,7.799-6.255,12.851-6.707c0.555-0.051,1.109-0.085,1.664-0.085h41.276c0.051,0,0.12,0,0.179,0
			c9.387,0,17.425,6.946,18.748,16.162c1.818,13.773,5.205,27.358,10.086,40.397c2.577,6.869,0.913,14.677-4.224,19.857
			l-17.434,17.408c-2.731,2.714-3.294,6.921-1.391,10.266c20.301,35.627,49.894,65.161,85.581,85.41
			c3.337,1.886,7.526,1.331,10.24-1.382l17.408-17.365c5.239-5.163,13.065-6.852,19.994-4.241
			c13.03,4.855,26.641,8.235,40.371,10.044c9.515,1.34,16.512,9.574,16.273,19.157C384.023,332.308,384.023,332.385,384.023,332.453
			z"/>
	</g>
</g>
<g>
	<g>
		<path d="M256.006,0.003c-141.158,0-256,114.842-256,256c0,48.819,13.773,96.145,39.876,137.182L0.526,500.534
			c-1.135,3.072-0.401,6.528,1.886,8.875c1.638,1.69,3.857,2.594,6.127,2.594c0.905,0,1.818-0.145,2.697-0.435l111.352-37.111
			c40.158,24.567,86.195,37.547,133.419,37.547c141.158,0,256-114.842,256-256S397.164,0.003,256.006,0.003z M256.014,494.936
			c-45.346,0-89.523-12.817-127.744-37.06c-1.382-0.87-2.97-1.323-4.574-1.323c-0.913,0-1.818,0.145-2.697,0.444l-98.347,32.777
			l34.731-94.72c0.93-2.543,0.606-5.376-0.887-7.637c-25.788-39.057-39.415-84.497-39.415-131.413
			c0-131.746,107.187-238.933,238.933-238.933s238.933,107.187,238.933,238.933S387.76,494.936,256.014,494.936z"/>
	</g>
</g>
<g>
</g>
<g>
</g>
<g>
</g>
<g>
</g>
<g>
</g>
<g>
</g>
<g>
</g>
<g>
</g>
<g>
</g>
<g>
</g>
<g>
</g>
<g>
</g>
<g>
</g>
<g>
</g>
<g>
</g>
</svg>
