<svg id="Capa_1" enable-background="new 0 0 512 512" height="512" viewBox="0 0 512 512" width="512" xmlns="http://www.w3.org/2000/svg"><path d="m437.02 74.98c-48.353-48.351-112.64-74.98-181.02-74.98s-132.667 26.629-181.02 74.98c-48.351 48.353-74.98 112.64-74.98 181.02s26.629 132.667 74.98 181.02c48.353 48.351 112.64 74.98 181.02 74.98s132.667-26.629 181.02-74.98c48.351-48.353 74.98-112.64 74.98-181.02s-26.629-132.667-74.98-181.02zm-105.77 37.156c0 29.473 23.979 53.451 53.451 53.451v30c-46.015 0-83.451-37.436-83.451-83.451zm-30 84.613h30v30h-30zm-173.951-31.162c29.473 0 53.451-23.978 53.451-53.451h30c0 46.015-37.436 83.451-83.451 83.451zm83.451 31.162v30h-30v-30zm169.596 185.755c-21.601-49.436-70.409-81.379-124.346-81.379s-102.745 31.943-124.345 81.378l-27.49-12.012c26.375-60.363 85.974-99.367 151.835-99.367 65.862 0 125.461 39.004 151.836 99.368z"/></svg>