<svg  viewBox="0 0 478 127" fill="none" xmlns="http://www.w3.org/2000/svg">
<mask id="path-1-outside-1" maskUnits="userSpaceOnUse" x="0.298828" y="0.961914" width="478" height="126" fill="black">
<rect fill="white" x="0.298828" y="0.961914" width="478" height="126"/>
<path d="M96.1191 69.0967C96.1191 79.5947 94.2637 88.7988 90.5527 96.709C86.8418 104.619 81.5195 110.723 74.5859 115.02C67.7012 119.316 59.791 121.465 50.8555 121.465C42.0176 121.465 34.1318 119.341 27.1982 115.093C20.2646 110.845 14.8936 104.79 11.085 96.9287C7.27637 89.0186 5.34766 79.9365 5.29883 69.6826V64.4092C5.29883 53.9111 7.17871 44.6826 10.9385 36.7236C14.7471 28.7158 20.0938 22.5879 26.9785 18.3398C33.9121 14.043 41.8223 11.8945 50.709 11.8945C59.5957 11.8945 67.4814 14.043 74.3662 18.3398C81.2998 22.5879 86.6465 28.7158 90.4062 36.7236C94.2148 44.6826 96.1191 53.8867 96.1191 64.3359V69.0967ZM73.8535 64.2627C73.8535 53.0811 71.8516 44.585 67.8477 38.7744C63.8438 32.9639 58.1309 30.0586 50.709 30.0586C43.3359 30.0586 37.6475 32.9395 33.6436 38.7012C29.6396 44.4141 27.6133 52.8125 27.5645 63.8965V69.0967C27.5645 79.9854 29.5664 88.4326 33.5703 94.4385C37.5742 100.444 43.3359 103.447 50.8555 103.447C58.2285 103.447 63.8926 100.566 67.8477 94.8047C71.8027 88.9941 73.8047 80.5469 73.8535 69.4629V64.2627ZM123.98 120V56.2793H112.188V40.752H123.98V34.0137C123.98 25.127 126.52 18.2422 131.598 13.3594C136.725 8.42773 143.878 5.96191 153.058 5.96191C155.987 5.96191 159.576 6.4502 163.824 7.42676L163.604 23.833C161.847 23.3936 159.698 23.1738 157.159 23.1738C149.2 23.1738 145.221 26.9092 145.221 34.3799V40.752H171.295V34.8193C171.344 25.4932 174.225 18.3643 179.938 13.4326C185.699 8.45215 193.731 5.96191 204.034 5.96191C211.065 5.96191 223.028 6.74316 239.923 8.30566V120H218.683V23.9062C214.483 23.418 210.553 23.1738 206.891 23.1738C197.32 23.1738 192.535 27.251 192.535 35.4053V40.752H208.282V56.2793H192.535V120H171.295V56.2793H145.221V120H123.98ZM287.34 120H266.1V40.752H287.34V120ZM264.854 20.2441C264.854 17.0703 265.904 14.458 268.004 12.4072C270.152 10.3564 273.058 9.33105 276.72 9.33105C280.333 9.33105 283.214 10.3564 285.362 12.4072C287.511 14.458 288.585 17.0703 288.585 20.2441C288.585 23.4668 287.486 26.1035 285.289 28.1543C283.141 30.2051 280.284 31.2305 276.72 31.2305C273.155 31.2305 270.274 30.2051 268.077 28.1543C265.929 26.1035 264.854 23.4668 264.854 20.2441ZM331.827 40.752L332.486 49.9072C338.15 42.8271 345.743 39.2871 355.265 39.2871C363.663 39.2871 369.913 41.7529 374.015 46.6846C378.116 51.6162 380.216 58.9893 380.313 68.8037V120H359.146V69.3164C359.146 64.8242 358.17 61.5771 356.217 59.5752C354.264 57.5244 351.017 56.499 346.476 56.499C340.519 56.499 336.051 59.0381 333.072 64.1162V120H311.905V40.752H331.827ZM440.401 121.465C428.78 121.465 419.308 117.9 411.983 110.771C404.708 103.643 401.07 94.1455 401.07 82.2803V80.2295C401.07 72.2705 402.608 65.166 405.685 58.916C408.761 52.6172 413.106 47.7832 418.722 44.4141C424.386 40.9961 430.831 39.2871 438.058 39.2871C448.897 39.2871 457.418 42.7051 463.619 49.541C469.869 56.377 472.994 66.0693 472.994 78.6182V87.2607H422.53C423.214 92.4365 425.265 96.5869 428.683 99.7119C432.149 102.837 436.52 104.399 441.793 104.399C449.947 104.399 456.319 101.445 460.909 95.5371L471.31 107.183C468.136 111.675 463.839 115.19 458.419 117.729C452.999 120.22 446.993 121.465 440.401 121.465ZM437.984 56.4258C433.785 56.4258 430.367 57.8418 427.73 60.6738C425.143 63.5059 423.482 67.5586 422.75 72.832H452.193V71.1475C452.096 66.46 450.826 62.8467 448.385 60.3076C445.943 57.7197 442.477 56.4258 437.984 56.4258Z"/>
</mask>
<path d="M96.1191 69.0967C96.1191 79.5947 94.2637 88.7988 90.5527 96.709C86.8418 104.619 81.5195 110.723 74.5859 115.02C67.7012 119.316 59.791 121.465 50.8555 121.465C42.0176 121.465 34.1318 119.341 27.1982 115.093C20.2646 110.845 14.8936 104.79 11.085 96.9287C7.27637 89.0186 5.34766 79.9365 5.29883 69.6826V64.4092C5.29883 53.9111 7.17871 44.6826 10.9385 36.7236C14.7471 28.7158 20.0938 22.5879 26.9785 18.3398C33.9121 14.043 41.8223 11.8945 50.709 11.8945C59.5957 11.8945 67.4814 14.043 74.3662 18.3398C81.2998 22.5879 86.6465 28.7158 90.4062 36.7236C94.2148 44.6826 96.1191 53.8867 96.1191 64.3359V69.0967ZM73.8535 64.2627C73.8535 53.0811 71.8516 44.585 67.8477 38.7744C63.8438 32.9639 58.1309 30.0586 50.709 30.0586C43.3359 30.0586 37.6475 32.9395 33.6436 38.7012C29.6396 44.4141 27.6133 52.8125 27.5645 63.8965V69.0967C27.5645 79.9854 29.5664 88.4326 33.5703 94.4385C37.5742 100.444 43.3359 103.447 50.8555 103.447C58.2285 103.447 63.8926 100.566 67.8477 94.8047C71.8027 88.9941 73.8047 80.5469 73.8535 69.4629V64.2627ZM123.98 120V56.2793H112.188V40.752H123.98V34.0137C123.98 25.127 126.52 18.2422 131.598 13.3594C136.725 8.42773 143.878 5.96191 153.058 5.96191C155.987 5.96191 159.576 6.4502 163.824 7.42676L163.604 23.833C161.847 23.3936 159.698 23.1738 157.159 23.1738C149.2 23.1738 145.221 26.9092 145.221 34.3799V40.752H171.295V34.8193C171.344 25.4932 174.225 18.3643 179.938 13.4326C185.699 8.45215 193.731 5.96191 204.034 5.96191C211.065 5.96191 223.028 6.74316 239.923 8.30566V120H218.683V23.9062C214.483 23.418 210.553 23.1738 206.891 23.1738C197.32 23.1738 192.535 27.251 192.535 35.4053V40.752H208.282V56.2793H192.535V120H171.295V56.2793H145.221V120H123.98ZM287.34 120H266.1V40.752H287.34V120ZM264.854 20.2441C264.854 17.0703 265.904 14.458 268.004 12.4072C270.152 10.3564 273.058 9.33105 276.72 9.33105C280.333 9.33105 283.214 10.3564 285.362 12.4072C287.511 14.458 288.585 17.0703 288.585 20.2441C288.585 23.4668 287.486 26.1035 285.289 28.1543C283.141 30.2051 280.284 31.2305 276.72 31.2305C273.155 31.2305 270.274 30.2051 268.077 28.1543C265.929 26.1035 264.854 23.4668 264.854 20.2441ZM331.827 40.752L332.486 49.9072C338.15 42.8271 345.743 39.2871 355.265 39.2871C363.663 39.2871 369.913 41.7529 374.015 46.6846C378.116 51.6162 380.216 58.9893 380.313 68.8037V120H359.146V69.3164C359.146 64.8242 358.17 61.5771 356.217 59.5752C354.264 57.5244 351.017 56.499 346.476 56.499C340.519 56.499 336.051 59.0381 333.072 64.1162V120H311.905V40.752H331.827ZM440.401 121.465C428.78 121.465 419.308 117.9 411.983 110.771C404.708 103.643 401.07 94.1455 401.07 82.2803V80.2295C401.07 72.2705 402.608 65.166 405.685 58.916C408.761 52.6172 413.106 47.7832 418.722 44.4141C424.386 40.9961 430.831 39.2871 438.058 39.2871C448.897 39.2871 457.418 42.7051 463.619 49.541C469.869 56.377 472.994 66.0693 472.994 78.6182V87.2607H422.53C423.214 92.4365 425.265 96.5869 428.683 99.7119C432.149 102.837 436.52 104.399 441.793 104.399C449.947 104.399 456.319 101.445 460.909 95.5371L471.31 107.183C468.136 111.675 463.839 115.19 458.419 117.729C452.999 120.22 446.993 121.465 440.401 121.465ZM437.984 56.4258C433.785 56.4258 430.367 57.8418 427.73 60.6738C425.143 63.5059 423.482 67.5586 422.75 72.832H452.193V71.1475C452.096 66.46 450.826 62.8467 448.385 60.3076C445.943 57.7197 442.477 56.4258 437.984 56.4258Z" style="stroke: var(--strokeColor); stroke-width: var(--strokeWidth)" mask="url(#path-1-outside-1)"/>
</svg>
