<svg viewBox="0 0 303 343"  xmlns="http://www.w3.org/2000/svg">
<g clip-path="url(#clip0)">

    <!--  background   -->
    <rect x="1.47388" y="0.5" width="301" height="342" rx="6.5" style="fill: var(--background)"/>
    <!--  header primary  -->
    <rect x="16" y="157" width="187" height="6"  style="fill: var(--primary)"/>
    <!--  text  -->
    <g  style="fill: var(--text)">
        <rect x="29.8665" y="170.714" width="155.134" height="2.57143" rx="1.28571" />
        <rect x="29.8665" y="196.428" width="155.134" height="2.57143" rx="1.28571" />
        <rect x="29.8665" y="206.428" width="155.134" height="2.57143" rx="1.28571" />
        <rect x="29.8665" y="216.428" width="155.134" height="2.57143" rx="1.28571" />
        <rect x="29.8665" y="226.428" width="155.134" height="2.57143" rx="1.28571" />
        <rect x="29.8665" y="236.428" width="155.134" height="2.57143" rx="1.28571" />
        <rect x="29.8665" y="246.428" width="155.134" height="2.57143" rx="1.28571" />
        <rect x="29.8665" y="179.286" width="155.134" height="2.57143" rx="1.28571" />
        <rect x="29.8665" y="187.857" width="155.134" height="2.57143" rx="1.28571" />
    </g>
<!--  primary  -->
    <rect x="16" y="286" width="184" height="6"  style="fill: var(--primary)"/>
<!-- text -->
    <g style="fill: var(--text)">
        <rect x="29.8665" y="299.714" width="155.134" height="2.57143" rx="1.28571" />
        <rect x="29.8665" y="308.286" width="155.134" height="2.57143" rx="1.28571" />
        <rect x="29.8665" y="316.857" width="155.134" height="2.57143" rx="1.28571" />
    </g>
<!-- primary -->
    <rect x="14" y="90" width="182" height="6"  style="fill: var(--primary)"/>
<!-- text -->
    <g style="fill: var(--text)">
        <rect x="32" y="104" width="69" height="2" rx="1" />
        <rect x="32" y="114" width="69" height="2" rx="1" />
        <rect x="32" y="124" width="69" height="2" rx="1" />
        <rect x="32" y="134" width="69" height="2" rx="1" />
        <rect x="32" y="144" width="69" height="2" rx="1" />
        <rect x="116" y="104" width="69" height="2" rx="1" />
        <rect x="116" y="114" width="69" height="2" rx="1" />
        <rect x="116" y="124" width="69" height="2" rx="1" />
        <rect x="116" y="134" width="69" height="2" rx="1" />
        <rect x="116" y="144" width="69" height="2" rx="1" />
    </g>

<!--  header priamry  -->
    <rect x="-7" width="314" height="71"  style="fill: var(--primary)"/>
<!--  text primary  -->
    <g style="fill: var(--text-primary)">
        <rect x="138" y="20" width="50" height="9" rx="4.5" />
        <rect x="132" y="35" width="56" height="9" rx="4.5" />
        <rect x="125" y="51" width="63" height="6" rx="3" />
    </g>

<!--  secondary  -->
    <rect x="196" y="0" width="89" height="345" />
<!-- text secondary -->
    <g style="fill: var(--text-secondary)">
        <rect x="206.329" y="327.428" width="70.6713" height="2.57143" rx="1.28571"/>
        <rect x="203" y="90" width="56.2223" height="6" rx="3" />
        <rect x="209.329" y="103.714" width="70.6713" height="2.57143" rx="1.28571" />
        <rect x="209.329" y="129.428" width="70.6713" height="2.57143" rx="1.28571" />
        <rect x="209.329" y="139.428" width="70.6713" height="2.57143" rx="1.28571" />
        <rect x="209.329" y="112.286" width="70.6713" height="2.57143" rx="1.28571" />
        <rect x="209.329" y="120.857" width="70.6713" height="2.57143" rx="1.28571" />
        <rect x="203" y="157" width="56.2223" height="6" rx="3" />
        <rect x="209.329" y="170.714" width="70.6713" height="2.57143" rx="1.28571" />
        <rect x="209.329" y="196.428" width="70.6713" height="2.57143" rx="1.28571" />
        <rect x="209.329" y="206.428" width="70.6713" height="2.57143" rx="1.28571" />
        <rect x="209.329" y="216.428" width="70.6713" height="2.57143" rx="1.28571" />
        <rect x="209.329" y="179.286" width="70.6713" height="2.57143" rx="1.28571" />
        <rect x="209.329" y="187.857" width="70.6713" height="2.57143" rx="1.28571" />
        <rect x="203" y="237" width="56.2223" height="6" rx="3" />
        <rect x="209.329" y="250.714" width="70.6713" height="2.57143" rx="1.28571" />
        <rect x="209.329" y="276.428" width="70.6713" height="2.57143" rx="1.28571" />
        <rect x="209.329" y="286.428" width="70.6713" height="2.57143" rx="1.28571" />
        <rect x="209.329" y="259.286" width="70.6713" height="2.57143" rx="1.28571" />
        <rect x="209.329" y="267.857" width="70.6713" height="2.57143" rx="1.28571" />
    </g>
<!--  circle primary  -->
    <ellipse cx="241.5" cy="38" rx="26.5" ry="26"  style="fill: var(--primary)"/>
<!--  person photo  -->
    <g  style="fill: var(--text-primary)">
        <path d="M241.675 36.2316C244.454 36.2316 246.861 35.2347 248.827 33.2679C250.794 31.3014 251.791 28.8952 251.791 26.1155C251.791 23.3367 250.794 20.9302 248.827 18.9631C246.86 16.9969 244.454 16 241.675 16C238.895 16 236.489 16.9969 234.522 18.9634C232.556 20.9299 231.558 23.3363 231.558 26.1155C231.558 28.8952 232.556 31.3017 234.522 33.2682C236.489 35.2344 238.896 36.2316 241.675 36.2316V36.2316ZM236.263 20.7037C237.772 19.1947 239.542 18.4613 241.675 18.4613C243.807 18.4613 245.577 19.1947 247.087 20.7037C248.596 22.2129 249.329 23.9833 249.329 26.1155C249.329 28.2483 248.596 30.0183 247.087 31.5276C245.577 33.0368 243.807 33.7703 241.675 33.7703C239.542 33.7703 237.772 33.0365 236.263 31.5276C234.754 30.0187 234.02 28.2483 234.02 26.1155C234.02 23.9833 234.754 22.2129 236.263 20.7037Z" />
        <path d="M259.375 48.2959C259.318 47.4775 259.204 46.5847 259.035 45.642C258.864 44.6923 258.645 43.7944 258.382 42.9738C258.11 42.1256 257.742 41.288 257.285 40.4853C256.812 39.6522 256.255 38.9267 255.631 38.3297C254.978 37.7052 254.179 37.2031 253.255 36.8368C252.334 36.4725 251.314 36.2879 250.222 36.2879C249.793 36.2879 249.378 36.4638 248.578 36.9852C248.085 37.3066 247.508 37.6783 246.865 38.0894C246.315 38.44 245.569 38.7684 244.649 39.0658C243.751 39.3564 242.839 39.5038 241.938 39.5038C241.039 39.5038 240.127 39.3564 239.228 39.0658C238.308 38.7687 237.562 38.4403 237.013 38.0897C236.376 37.6824 235.799 37.3107 235.299 36.9849C234.499 36.4635 234.084 36.2876 233.655 36.2876C232.563 36.2876 231.543 36.4725 230.622 36.8371C229.699 37.2028 228.9 37.7049 228.246 38.33C227.622 38.9273 227.066 39.6525 226.593 40.4853C226.137 41.288 225.768 42.1253 225.496 42.9741C225.233 43.7947 225.014 44.6923 224.843 45.642C224.674 46.5835 224.56 47.4765 224.503 48.2968C224.447 49.0989 224.419 49.9336 224.419 50.777C224.419 52.9694 225.116 54.7443 226.49 56.0532C227.848 57.3449 229.644 57.9999 231.828 57.9999H252.051C254.235 57.9999 256.031 57.3449 257.388 56.0532C258.763 54.7452 259.46 52.9697 259.46 50.7767C259.46 49.9304 259.431 49.0957 259.375 48.2959V48.2959ZM255.691 54.27C254.794 55.1237 253.604 55.5386 252.051 55.5386H231.828C230.275 55.5386 229.084 55.1237 228.188 54.2704C227.308 53.4331 226.88 52.2901 226.88 50.777C226.88 49.99 226.906 49.2129 226.958 48.467C227.009 47.7351 227.112 46.9311 227.266 46.0769C227.417 45.2332 227.61 44.4414 227.84 43.7245C228.06 43.0372 228.36 42.3566 228.733 41.701C229.088 41.0762 229.497 40.5401 229.948 40.1081C230.37 39.7041 230.902 39.3734 231.529 39.1254C232.108 38.8959 232.76 38.7703 233.467 38.7514C233.553 38.7972 233.707 38.8847 233.955 39.0469C234.461 39.3766 235.044 39.7528 235.689 40.1645C236.416 40.6279 237.352 41.0464 238.471 41.4075C239.615 41.7773 240.781 41.965 241.939 41.965C243.096 41.965 244.263 41.7773 245.406 41.4078C246.526 41.046 247.462 40.6279 248.189 40.1639C248.849 39.7422 249.416 39.3769 249.922 39.0469C250.171 38.885 250.324 38.7972 250.41 38.7514C251.118 38.7703 251.769 38.8959 252.349 39.1254C252.976 39.3734 253.508 39.7044 253.93 40.1081C254.381 40.5398 254.79 41.0758 255.145 41.7013C255.518 42.3566 255.818 43.0375 256.038 43.7242C256.268 44.442 256.461 45.2335 256.612 46.0765C256.765 46.9324 256.869 47.7367 256.92 48.4673V48.4679C256.972 49.211 256.998 49.9878 256.999 50.777C256.998 52.2904 256.571 53.4331 255.691 54.27V54.27Z" />
    </g>
<!--  border  -->
    <rect x="0.5" y="0.5" width="301" height="341" rx="6.5" ry="6.5" fill="none" style="stroke: var(--border)"/>
</g>

<defs>
<clipPath id="clip0">
    <rect x="0" y="0" width="302" height="342" rx="6.5" ry="6.5"/>
</clipPath>
</defs>
</svg>
