<svg viewBox="0 0 303 343" fill="none" xmlns="http://www.w3.org/2000/svg">
<g clip-path="url(#clip0)">
    <!--primary-->
    <g style="fill: var(--primary)">
        <rect x="-7" y="54" width="139" height="162" />
        <rect x="130" y="188" width="173" height="162"/>
    </g>
    <!--  background  -->
    <g style="fill: var(--background)">
        <rect x="130" y="52" width="181" height="144" />
        <rect x="-51" y="196" width="181" height="184" />
    </g>
    <!--  secondary  -->
    <g style="fill: var(--secondary)">
        <path d="M-7.00003 0H307C307 0 349 109 307 86C265 63 209.5 56 151 71C92.4999 86 68.5 94.5 1.5 75.5C-65.5 56.5 -7.00003 0 -7.00003 0Z" />
    </g>
    <!-- background -->
    <circle cx="224" cy="64" r="39" style="fill: var(--background)"/>
    <!--  text  -->
    <g style="fill: var(--text)">
        <path d="M222.701 60.2316C225.48 60.2316 227.887 59.2347 229.853 57.2679C231.82 55.3014 232.817 52.8952 232.817 50.1155C232.817 47.3367 231.82 44.9302 229.853 42.9631C227.886 40.9969 225.48 40 222.701 40C219.921 40 217.515 40.9969 215.548 42.9634C213.582 44.9299 212.585 47.3363 212.585 50.1155C212.585 52.8952 213.582 55.3017 215.548 57.2682C217.515 59.2344 219.922 60.2316 222.701 60.2316V60.2316ZM217.289 44.7037C218.798 43.1947 220.568 42.4613 222.701 42.4613C224.833 42.4613 226.604 43.1947 228.113 44.7037C229.622 46.2129 230.356 47.9833 230.356 50.1155C230.356 52.2483 229.622 54.0183 228.113 55.5276C226.604 57.0368 224.833 57.7703 222.701 57.7703C220.569 57.7703 218.798 57.0365 217.289 55.5276C215.78 54.0187 215.046 52.2483 215.046 50.1155C215.046 47.9833 215.78 46.2129 217.289 44.7037Z" />
        <path d="M240.401 72.2959C240.344 71.4775 240.23 70.5847 240.061 69.642C239.89 68.6923 239.671 67.7944 239.408 66.9738C239.136 66.1256 238.768 65.288 238.311 64.4853C237.838 63.6522 237.281 62.9267 236.657 62.3297C236.005 61.7052 235.205 61.2031 234.281 60.8368C233.36 60.4725 232.34 60.2879 231.248 60.2879C230.819 60.2879 230.405 60.4638 229.604 60.9852C229.111 61.3066 228.535 61.6783 227.891 62.0894C227.341 62.44 226.596 62.7684 225.675 63.0658C224.777 63.3564 223.865 63.5038 222.964 63.5038C222.065 63.5038 221.153 63.3564 220.254 63.0658C219.334 62.7687 218.589 62.4403 218.039 62.0897C217.402 61.6824 216.825 61.3107 216.325 60.9849C215.525 60.4635 215.11 60.2876 214.682 60.2876C213.589 60.2876 212.569 60.4725 211.649 60.8371C210.725 61.2028 209.926 61.7049 209.272 62.33C208.648 62.9273 208.092 63.6525 207.619 64.4853C207.163 65.288 206.794 66.1253 206.522 66.9741C206.26 67.7947 206.04 68.6923 205.87 69.642C205.7 70.5835 205.586 71.4765 205.529 72.2968C205.474 73.0989 205.445 73.9336 205.445 74.777C205.445 76.9694 206.142 78.7443 207.517 80.0532C208.874 81.3449 210.67 81.9999 212.854 81.9999H233.077C235.261 81.9999 237.057 81.3449 238.415 80.0532C239.789 78.7452 240.486 76.9697 240.486 74.7767C240.486 73.9304 240.457 73.0957 240.401 72.2959V72.2959ZM236.717 78.27C235.821 79.1237 234.63 79.5386 233.077 79.5386H212.854C211.301 79.5386 210.11 79.1237 209.214 78.2704C208.334 77.4331 207.907 76.2901 207.907 74.777C207.907 73.99 207.933 73.2129 207.984 72.467C208.035 71.7351 208.139 70.9311 208.292 70.0769C208.444 69.2332 208.637 68.4414 208.866 67.7245C209.086 67.0372 209.386 66.3566 209.759 65.701C210.114 65.0762 210.523 64.5401 210.974 64.1081C211.396 63.7041 211.928 63.3734 212.555 63.1254C213.134 62.8959 213.786 62.7703 214.493 62.7514C214.579 62.7972 214.733 62.8847 214.981 63.0469C215.487 63.3766 216.071 63.7528 216.715 64.1645C217.442 64.6279 218.378 65.0464 219.497 65.4075C220.641 65.7773 221.807 65.965 222.965 65.965C224.122 65.965 225.289 65.7773 226.432 65.4078C227.552 65.046 228.488 64.6279 229.215 64.1639C229.875 63.7422 230.442 63.3769 230.948 63.0469C231.197 62.885 231.35 62.7972 231.436 62.7514C232.144 62.7703 232.795 62.8959 233.375 63.1254C234.002 63.3734 234.534 63.7044 234.956 64.1081C235.407 64.5398 235.816 65.0758 236.171 65.7013C236.544 66.3566 236.844 67.0375 237.064 67.7242C237.294 68.442 237.487 69.2335 237.638 70.0765C237.792 70.9324 237.895 71.7367 237.946 72.4673V72.4679C237.998 73.211 238.025 73.9878 238.025 74.777C238.025 76.2904 237.597 77.4331 236.717 78.27V78.27Z" />
    </g>
    <!--  text  -->
    <g style="fill: var(--text)">
        <rect x="21" y="219" width="54" height="7" rx="3.5" />
        <rect x="21.0636" y="235.996" width="90.2135" height="3.18677" rx="1.59338" />
        <rect x="21.0636" y="246.619" width="90.2135" height="3.18677" rx="1.59338" />
        <rect x="21.0636" y="257.241" width="90.2135" height="3.18677" rx="1.59338" />
        <rect x="21.0636" y="269.634" width="90.2135" height="3.18677" rx="1.59338" />
        <rect x="21.0636" y="282.027" width="90.2135" height="3.18677" rx="1.59338" />
        <rect x="21.0636" y="294.42" width="90.2135" height="3.18677" rx="1.59338" />
        <rect x="21.0636" y="306.813" width="90.2135" height="3.18677" rx="1.59338" />
    </g>
    <!--    text primary    -->
    <g style="fill: var(--text-primary)">
        <rect x="21" y="119" width="54" height="7" rx="3.5" />
        <rect x="21.0636" y="135.996" width="90.2135" height="3.18677" rx="1.59338" />
        <rect x="21.0636" y="146.619" width="90.2135" height="3.18677" rx="1.59338" />
        <rect x="21.0636" y="157.241" width="90.2135" height="3.18677" rx="1.59338" />
        <rect x="21.0636" y="169.634" width="90.2135" height="3.18677" rx="1.59338" />
        <rect x="21.0636" y="182.027" width="90.2135" height="3.18677" rx="1.59338" />
    </g>
    <!--  text  -->
    <g style="fill: var(--text)">
        <rect x="152" y="120" width="98" height="7" rx="3.5" />
        <rect x="152" y="137" width="37" height="3" rx="1.5" />
        <rect x="152" y="160" width="37" height="3" rx="1.5" />
        <rect x="192" y="137" width="37" height="3" rx="1.5" />
        <rect x="192" y="160" width="37" height="3" rx="1.5" />
        <rect x="233" y="137" width="37" height="3" rx="1.5" />
        <rect x="233" y="160" width="37" height="3" rx="1.5" />
        <rect x="152" y="148" width="25" height="3" rx="1.5" />
        <rect x="152" y="173" width="25" height="3" rx="1.5" />
        <rect x="184" y="148" width="25" height="3" rx="1.5" />
        <rect x="184" y="173" width="25" height="3" rx="1.5" />
        <rect x="215" y="148" width="25" height="3" rx="1.5" />
        <rect x="215" y="173" width="25" height="3" rx="1.5" />
        <rect x="245" y="148" width="25" height="3" rx="1.5" />
        <rect x="245" y="173" width="25" height="3" rx="1.5" />
    </g>
    <!--  text primary  -->
    <g style="fill: var(--text-primary)">
        <rect x="154" y="219" width="97" height="7" rx="3.5" />
        <rect x="154.078" y="235.996" width="123.938" height="3.18677" rx="1.59338" />
        <rect x="154.078" y="246.619" width="123.938" height="3.18677" rx="1.59338" />
        <rect x="154.078" y="257.241" width="123.938" height="3.18677" rx="1.59338" />
        <rect x="154.078" y="269.634" width="123.938" height="3.18677" rx="1.59338" />
        <rect x="154.078" y="282.027" width="123.938" height="3.18677" rx="1.59338" />
        <rect x="154.078" y="294.42" width="123.938" height="3.18677" rx="1.59338" />
        <rect x="154.078" y="306.813" width="123.938" height="3.18677" rx="1.59338" />
        <rect x="154.078" y="306.813" width="123.938" height="3.18677" rx="1.59338" />
    </g>
    <!--  text secondary  -->
    <g style="fill: var(--text-secondary)">
        <rect x="21" y="46" width="56" height="9" rx="4.5" />
        <rect x="21" y="30" width="45" height="9" rx="4.5" />
    </g>
    <!--  primary  -->
    <rect x="21" y="62" width="63" height="6" rx="3" style="fill: var(--primary)"/>
</g>
<!-- border   -->
<rect x="1.47388" y="0.5" width="301" height="342" rx="6.5"  style="stroke: var(--border)"/>
<defs>
<clipPath id="clip0">
    <rect x="0" y="0" width="302" height="342" rx="6.5" ry="6.5"/>
</clipPath>
</defs>
</svg>
