<svg viewBox="0 0 302 343" fill="none" xmlns="http://www.w3.org/2000/svg">
<g clip-path="url(#clip0)">
<!--  border  -->
<rect x="0.5" y="0.5" width="301" height="342" rx="6.5" style="stroke: var(--border)"/>
<!--  background  -->
<g style="fill: var(--background)">
    <rect x="0.5" y="0.5" width="301" height="342" rx="6.5"/>
</g>
<!--  sidebar  -->
<rect x="-11" width="68" height="350" style="fill: var(--primary)"/>

<!--  sideba line seoncdary  -->
<rect x="27" y="93" width="2" height="161" style="fill: var(--secondary)"/>

<!--  header text  -->
<g style="fill: var(--secondary)">
    <rect x="25" y="42" width="113" height="11" rx="5.5" />
    <rect x="5" y="5" width="226" height="14" rx="7" />
</g>
<!--  header secondary  -->
<rect x="71" y="72" width="75" height="5.71429" rx="2.85714"  style="fill: var(--primary)"/>
<!--  text  -->
<g style="fill: var(--text)">
    <rect x="86.7808" y="85.0613" width="176.219" height="2.44898" rx="1.22449" />
    <rect x="86.7808" y="93.2246" width="176.219" height="2.44898" rx="1.22449" />
    <rect x="86.7808" y="101.388" width="176.219" height="2.44898" rx="1.22449" />
</g>
<!--  header primary  -->
<rect x="71" y="215" width="75" height="6" rx="3" style="fill: var(--primary)"/>
<!--  text  -->
<g style="fill: var(--text)">
    <rect x="86.7808" y="228.714" width="176.219" height="2.57143" rx="1.28571" />
    <rect x="86.7808" y="254.428" width="176.219" height="2.57143" rx="1.28571" />
    <rect x="86.7808" y="237.286" width="176.219" height="2.57143" rx="1.28571" />
    <rect x="86.7808" y="245.857" width="176.219" height="2.57143" rx="1.28571" />
</g>
<!--  header primary  -->
<rect x="71" y="165" width="75" height="6" rx="3" style="fill: var(--primary)"/>
<!--  text  -->
<g style="fill: var(--text)">
    <rect x="86.7808" y="178.714" width="176.219" height="2.57143" rx="1.28571" />
    <rect x="86.7808" y="204.428" width="176.219" height="2.57143" rx="1.28571" />
    <rect x="86.7808" y="187.286" width="176.219" height="2.57143" rx="1.28571" />
    <rect x="86.7808" y="195.857" width="176.219" height="2.57143" rx="1.28571" />
</g>
<!--  header primary  -->
<rect x="71" y="115" width="75" height="6" rx="3" style="fill: var(--primary)"/>
<!--  text  -->
<g style="fill: var(--text)">
    <rect x="87" y="129" width="35" height="2" rx="1" />
    <rect x="134" y="129" width="35" height="2" rx="1" />
    <rect x="181" y="129" width="35" height="2" rx="1" />
    <rect x="228" y="129" width="35" height="2" rx="1" />
    <rect x="87" y="145" width="35" height="2" rx="1" />
    <rect x="134" y="145" width="35" height="2" rx="1" />
    <rect x="181" y="145" width="35" height="2" rx="1" />
    <rect x="228" y="145" width="35" height="2" rx="1" />
    <rect x="87" y="137" width="28" height="2" rx="1" />
    <rect x="124" y="137" width="35" height="2" rx="1" />
    <rect x="175" y="137" width="45" height="2" rx="1" />
    <rect x="234" y="137" width="29" height="2" rx="1" />
    <rect x="87" y="154" width="28" height="2" rx="1" />
    <rect x="124" y="154" width="35" height="2" rx="1" />
    <rect x="234" y="154" width="29" height="2" rx="1" />
    <rect x="165" y="154" width="29" height="2" rx="1" />
    <rect x="200" y="154" width="29" height="2" rx="1" />
</g>
<!--  header primary  -->
<rect x="71" y="270" width="79" height="5.85714" rx="2.92857" style="fill: var(--primary)"/>
<!--  text  -->
<g style="fill: var(--text)">
    <rect x="77.4932" y="283.388" width="72.5069" height="2.5102" rx="1.2551" />
    <rect x="77.4932" y="308.49" width="72.5069" height="2.5102" rx="1.2551" />
    <rect x="77.4932" y="291.755" width="72.5069" height="2.5102" rx="1.2551" />
    <rect x="77.4932" y="300.123" width="72.5069" height="2.5102" rx="1.2551" />
</g>
<!--  header primary  -->
<rect x="180" y="270" width="79" height="5.85714" rx="2.92857" style="fill: var(--primary)"/>
<!--  text  -->
<g style="fill: var(--text)">
    <rect x="186.493" y="283.388" width="72.5069" height="2.5102" rx="1.2551" />
    <rect x="186.493" y="308.49" width="72.5069" height="2.5102" rx="1.2551" />
    <rect x="186.493" y="291.755" width="72.5069" height="2.5102" rx="1.2551" />
    <rect x="186.493" y="300.123" width="72.5069" height="2.5102" rx="1.2551" />
</g>
<!-- Floopy disc secondary stroke -->
<g style="stroke: var(--text)">
    <path d="M63.624 280.429L53.3573 269.404C53.1167 269.145 52.7903 269 52.45 269H-6.58333C-8.28451 269.002 -9.91543 269.729 -11.1184 271.021C-12.3213 272.312 -12.998 274.064 -13 275.891V344.797C-12.998 346.624 -12.3213 348.375 -11.1184 349.667C-9.91543 350.959 -8.28451 351.685 -6.58333 351.687H57.5833C59.2845 351.685 60.9154 350.959 62.1183 349.667C63.3213 348.375 63.998 346.624 64 344.797V281.403C63.9999 281.038 63.8647 280.687 63.624 280.429V280.429ZM46.0333 271.756V293.806C46.0333 294.172 45.8981 294.522 45.6575 294.781C45.4168 295.039 45.0904 295.184 44.75 295.184H6.25C5.90964 295.184 5.58322 295.039 5.34254 294.781C5.10187 294.522 4.96667 294.172 4.96667 293.806V271.756H46.0333ZM-2.73333 348.931V314.478C-2.73333 313.382 -2.32771 312.33 -1.6057 311.555C-0.88368 310.779 0.0955829 310.344 1.11667 310.344H49.8833C50.9044 310.344 51.8837 310.779 52.6057 311.555C53.3277 312.33 53.7333 313.382 53.7333 314.478V348.931H-2.73333ZM61.4333 344.797C61.4333 345.893 61.0277 346.945 60.3057 347.72C59.5837 348.496 58.6044 348.931 57.5833 348.931H56.3V314.478C56.298 312.651 55.6213 310.9 54.4183 309.608C53.2154 308.316 51.5845 307.59 49.8833 307.587H1.11667C-0.584514 307.59 -2.21543 308.316 -3.41835 309.608C-4.62127 310.9 -5.29796 312.651 -5.3 314.478V348.931H-6.58333C-7.60442 348.931 -8.58368 348.496 -9.30569 347.72C-10.0277 346.945 -10.4333 345.893 -10.4333 344.797V275.891C-10.4333 274.794 -10.0277 273.743 -9.30569 272.967C-8.58368 272.192 -7.60442 271.756 -6.58333 271.756H2.4V293.806C2.4 294.903 2.80562 295.954 3.52764 296.73C4.24965 297.505 5.22892 297.941 6.25 297.941H44.75C45.7711 297.941 46.7503 297.505 47.4724 296.73C48.1944 295.954 48.6 294.903 48.6 293.806V271.756H51.9187L61.4333 281.974V344.797Z" stroke-linecap="round"/>
    <path d="M34.4833 292.428H42.1833C42.5237 292.428 42.8501 292.283 43.0908 292.024C43.3315 291.766 43.4667 291.415 43.4667 291.05V275.891C43.4667 275.525 43.3315 275.175 43.0908 274.916C42.8501 274.658 42.5237 274.512 42.1833 274.512H34.4833C34.143 274.512 33.8166 274.658 33.5759 274.916C33.3352 275.175 33.2 275.525 33.2 275.891V291.05C33.2 291.415 33.3352 291.766 33.5759 292.024C33.8166 292.283 34.143 292.428 34.4833 292.428ZM35.7667 277.269H40.9V289.672H35.7667V277.269Z"  stroke-linecap="round"/>
    <path d="M44.75 328.26H6.25001C5.90965 328.26 5.58323 328.405 5.34255 328.663C5.10188 328.922 4.96667 329.272 4.96667 329.638C4.96667 330.003 5.10188 330.354 5.34255 330.612C5.58323 330.871 5.90965 331.016 6.25001 331.016H44.75C45.0904 331.016 45.4168 330.871 45.6575 330.612C45.8981 330.354 46.0333 330.003 46.0333 329.638C46.0333 329.272 45.8981 328.922 45.6575 328.663C45.4168 328.405 45.0904 328.26 44.75 328.26Z" stroke-linecap="round"/>
    <path d="M44.75 319.991H6.25001C5.90965 319.991 5.58323 320.136 5.34255 320.394C5.10188 320.653 4.96667 321.003 4.96667 321.369C4.96667 321.734 5.10188 322.085 5.34255 322.343C5.58323 322.602 5.90965 322.747 6.25001 322.747H44.75C45.0904 322.747 45.4168 322.602 45.6575 322.343C45.8981 322.085 46.0333 321.734 46.0333 321.369C46.0333 321.003 45.8981 320.653 45.6575 320.394C45.4168 320.136 45.0904 319.991 44.75 319.991Z" stroke-linecap="round"/>
    <path d="M44.75 336.528H6.25001C5.90965 336.528 5.58323 336.673 5.34255 336.932C5.10188 337.19 4.96667 337.541 4.96667 337.906C4.96667 338.272 5.10188 338.622 5.34255 338.881C5.58323 339.139 5.90965 339.284 6.25001 339.284H44.75C45.0904 339.284 45.4168 339.139 45.6575 338.881C45.8981 338.622 46.0333 338.272 46.0333 337.906C46.0333 337.541 45.8981 337.19 45.6575 336.932C45.4168 336.673 45.0904 336.528 44.75 336.528Z" stroke-linecap="round"/>
</g>
<!--  crosses - secondary  -->
<g style="fill: var(--text)">
    <rect x="268.789" y="23" width="1.08772" height="6.52632" />
    <rect x="272.597" y="25.7192" width="1.08772" height="6.52632" transform="rotate(90 272.597 25.7192)" />
    <rect x="268.789" y="35.158" width="1.08772" height="6.52632" />
    <rect x="272.597" y="37.8772" width="1.08772" height="6.52632" transform="rotate(90 272.597 37.8772)" />
    <rect x="268.789" y="46.3157" width="1.08772" height="6.52632" />
    <rect x="272.597" y="49.0349" width="1.08772" height="6.52632" transform="rotate(90 272.597 49.0349)" />
    <rect x="268.789" y="57.4736" width="1.08772" height="6.52632" />
    <rect x="272.597" y="60.1929" width="1.08772" height="6.52632" transform="rotate(90 272.597 60.1929)" />
    <rect x="283.491" y="23" width="1.08772" height="6.52632" />
    <rect x="287.298" y="25.7192" width="1.08772" height="6.52632" transform="rotate(90 287.298 25.7192)" />
    <rect x="283.491" y="35.158" width="1.08772" height="6.52632" />
    <rect x="287.298" y="37.8772" width="1.08772" height="6.52632" transform="rotate(90 287.298 37.8772)" />
    <rect x="283.491" y="46.3157" width="1.08772" height="6.52632" />
    <rect x="287.298" y="49.0349" width="1.08772" height="6.52632" transform="rotate(90 287.298 49.0349)" />
    <rect x="283.491" y="57.4736" width="1.08772" height="6.52632" />
    <rect x="287.298" y="60.1929" width="1.08772" height="6.52632" transform="rotate(90 287.298 60.1929)" />
    <rect x="296.193" y="23" width="1.08772" height="6.52632" />
    <rect x="300" y="25.7192" width="1.08772" height="6.52632" transform="rotate(90 300 25.7192)" />
    <rect x="296.193" y="35.158" width="1.08772" height="6.52632" />
    <rect x="300" y="37.8772" width="1.08772" height="6.52632" transform="rotate(90 300 37.8772)" />
    <rect x="296.193" y="46.3157" width="1.08772" height="6.52632" />
    <rect x="300" y="49.0349" width="1.08772" height="6.52632" transform="rotate(90 300 49.0349)" />
    <rect x="296.193" y="57.4736" width="1.08772" height="6.52632" />
    <rect x="300" y="60.1929" width="1.08772" height="6.52632" transform="rotate(90 300 60.1929)"/>
</g>
<!--  arrows - secondary  -->
<g style="fill: var(--text)">
    <path d="M267.198 335.019L251.5 323.111V328.732L260.277 334.584L260.855 334.969L260.307 335.395L251.5 342.245V348.138L267.198 335.019Z" />
    <path d="M280.198 335.019L264.5 323.111V328.732L273.277 334.584L273.855 334.969L273.307 335.395L264.5 342.245V348.138L280.198 335.019Z" />
    <path d="M293.198 335.019L277.5 323.111V328.732L286.277 334.584L286.855 334.969L286.307 335.395L277.5 342.245V348.138L293.198 335.019Z" />
    <path d="M306.198 335.019L290.5 323.111V328.732L299.277 334.584L299.855 334.969L299.307 335.395L290.5 342.245V348.138L306.198 335.019Z"/>
</g>
</g>
<defs>
<clipPath id="clip0">
    <rect x="0" y="0" width="301" height="342" rx="8" ry="8"/>
</clipPath>
</defs>
</svg>
