<svg viewBox="0 0 302 343" fill="none" xmlns="http://www.w3.org/2000/svg">

<!--  border  -->
<rect x="0.5" y="0.5" width="301" height="342" rx="6.5" style="stroke: var(--border)"/>
<!--  backgorudn  -->
<rect x="0.5" y="0.5" width="301" height="342" rx="6.5" style="fill: var(--background)"/>
<!--header text -->
<g style="fill: var(--text)">
    <rect x="90" y="30" width="88" height="9" rx="4.5" />
    <rect x="91" y="46" width="63" height="6" rx="3" />
</g>
<!-- primary -->
<rect x="91" y="75" width="75" height="5.71429" rx="2.85714" style="fill: var(--primary)"/>
<!--  text  -->
<g style="fill: var(--text)">
    <rect x="106.781" y="88.0613" width="176.219" height="2.44898" rx="1.22449" />
    <rect x="106.781" y="96.2246" width="176.219" height="2.44898" rx="1.22449" />
    <rect x="106.781" y="104.388" width="176.219" height="2.44898" rx="1.22449" />
</g>
<!-- primary -->
<rect x="90" y="201" width="75" height="6" rx="3" style="fill: var(--primary)"/>
<!--  text  -->
<g style="fill: var(--text)">
    <rect x="105.781" y="214.714" width="176.219" height="2.57143" rx="1.28571" />
    <rect x="105.781" y="240.428" width="176.219" height="2.57143" rx="1.28571" />
    <rect x="105.781" y="223.286" width="176.219" height="2.57143" rx="1.28571" />
    <rect x="105.781" y="231.857" width="176.219" height="2.57143" rx="1.28571" />
    <rect x="105.781" y="249.857" width="176.219" height="2.57143" rx="1.28571" />
    <rect x="105.781" y="260.857" width="176.219" height="2.57143" rx="1.28571" />
    <rect x="105.781" y="275.857" width="176.219" height="2.57143" rx="1.28571" />
    <rect x="105.781" y="286.857" width="176.219" height="2.57143" rx="1.28571" />
    <rect x="105.781" y="297.857" width="176.219" height="2.57143" rx="1.28571" />
    <rect x="105.781" y="308.857" width="176.219" height="2.57143" rx="1.28571" />
    <rect x="105.781" y="319.857" width="176.219" height="2.57143" rx="1.28571" />
</g>
<!-- primary -->
<rect x="5" y="162" width="54.9811" height="6" rx="3" style="fill: var(--primary)"/>
<!--  text  -->
<g style="fill: var(--text)">
    <rect x="10.0959" y="175.714" width="56.9041" height="2.57143" rx="1.28571" />
    <rect x="10.0959" y="201.428" width="56.9041" height="2.57143" rx="1.28571" />
    <rect x="10.0959" y="210.428" width="56.9041" height="2.57143" rx="1.28571" />
    <rect x="10.0959" y="225.428" width="56.9041" height="2.57143" rx="1.28571" />
    <rect x="10.0959" y="234.428" width="56.9041" height="2.57143" rx="1.28571" />
    <rect x="10.0959" y="243.428" width="56.9041" height="2.57143" rx="1.28571" />
    <rect x="10.0959" y="252.428" width="56.9041" height="2.57143" rx="1.28571" />
    <rect x="10.0959" y="261.428" width="56.9041" height="2.57143" rx="1.28571" />
    <rect x="10.0959" y="184.286" width="56.9041" height="2.57143" rx="1.28571" />
    <rect x="10.0959" y="192.857" width="56.9041" height="2.57143" rx="1.28571" />
</g>
<!-- primary -->
<rect x="5" y="99" width="54.9811" height="6" rx="3" style="fill: var(--primary)"/>
<!--  text  -->
<g style="fill: var(--text)">
    <rect x="10.0959" y="112.714" width="56.9041" height="2.57143" rx="1.28571" />
    <rect x="10.0959" y="138.428" width="56.9041" height="2.57143" rx="1.28571" />
    <rect x="10.0959" y="121.286" width="56.9041" height="2.57143" rx="1.28571" />
    <rect x="10.0959" y="129.857" width="56.9041" height="2.57143" rx="1.28571" />
</g>
<!-- primary -->
<rect x="5" y="279" width="54.9811" height="6" rx="3" style="fill: var(--primary)"/>
<!--  text  -->
<g style="fill: var(--text)">
    <rect x="10.0959" y="292.714" width="56.9041" height="2.57143" rx="1.28571" />
    <rect x="10.0959" y="318.428" width="56.9041" height="2.57143" rx="1.28571" />
    <rect x="10.0959" y="301.286" width="56.9041" height="2.57143" rx="1.28571" />
    <rect x="10.0959" y="309.857" width="56.9041" height="2.57143" rx="1.28571" />
</g>
<!-- primary -->
<rect x="90" y="128" width="75" height="6" rx="3" style="fill: var(--primary)"/>
<!--  text  -->
<g style="fill: var(--text)">
    <rect x="106" y="142" width="40" height="2" rx="1" />
    <rect x="106" y="142" width="35" height="2" rx="1" />
    <rect x="153" y="142" width="35" height="2" rx="1" />
    <rect x="200" y="142" width="35" height="2" rx="1" />
    <rect x="247" y="142" width="35" height="2" rx="1" />
    <rect x="106" y="158" width="35" height="2" rx="1" />
    <rect x="153" y="158" width="35" height="2" rx="1" />
    <rect x="200" y="158" width="35" height="2" rx="1" />
    <rect x="247" y="158" width="35" height="2" rx="1" />
    <rect x="106" y="150" width="28" height="2" rx="1" />
    <rect x="143" y="150" width="35" height="2" rx="1" />
    <rect x="185" y="150" width="45" height="2" rx="1" />
    <rect x="253" y="150" width="29" height="2" rx="1" />
    <rect x="106" y="167" width="28" height="2" rx="1" />
    <rect x="143" y="167" width="35" height="2" rx="1" />
    <rect x="253" y="167" width="29" height="2" rx="1" />
    <rect x="185" y="167" width="29" height="2" rx="1" />
    <rect x="225" y="167" width="20" height="2" rx="1" />
</g>
<!--  person img color text  -->
<g  style="fill: var(--text)">
    <path d="M34.7007 50.2316C37.4802 50.2316 39.8866 49.2347 41.8535 47.2679C43.8196 45.3014 44.8168 42.8952 44.8168 40.1155C44.8168 37.3367 43.82 34.9302 41.8531 32.9631C39.8863 30.9969 37.4798 30 34.7007 30C31.9209 30 29.5148 30.9969 27.5483 32.9634C25.5818 34.9299 24.5846 37.3363 24.5846 40.1155C24.5846 42.8952 25.5818 45.3017 27.5483 47.2682C29.5154 49.2344 31.9219 50.2316 34.7007 50.2316V50.2316ZM29.2889 34.7037C30.7978 33.1947 32.5679 32.4613 34.7007 32.4613C36.8332 32.4613 38.6036 33.1947 40.1129 34.7037C41.6218 36.2129 42.3556 37.9833 42.3556 40.1155C42.3556 42.2483 41.6218 44.0183 40.1129 45.5276C38.6036 47.0368 36.8332 47.7703 34.7007 47.7703C32.5685 47.7703 30.7985 47.0365 29.2889 45.5276C27.7796 44.0187 27.0459 42.2483 27.0459 40.1155C27.0459 37.9833 27.7796 36.2129 29.2889 34.7037Z" />
    <path d="M52.4012 62.2959C52.3445 61.4775 52.2298 60.5847 52.0609 59.642C51.8904 58.6923 51.6709 57.7944 51.4082 56.9738C51.1364 56.1256 50.7676 55.288 50.311 54.4853C49.8377 53.6522 49.2814 52.9267 48.6572 52.3297C48.0045 51.7052 47.2054 51.2031 46.2812 50.8368C45.3603 50.4725 44.3397 50.2879 43.248 50.2879C42.8192 50.2879 42.4046 50.4638 41.6038 50.9852C41.111 51.3066 40.5345 51.6783 39.8911 52.0894C39.3409 52.44 38.5956 52.7684 37.675 53.0658C36.7768 53.3564 35.8649 53.5038 34.9644 53.5038C34.0647 53.5038 33.1527 53.3564 32.2539 53.0658C31.3342 52.7687 30.5886 52.4403 30.0394 52.0897C29.402 51.6824 28.8252 51.3107 28.325 50.9849C27.5249 50.4635 27.1103 50.2876 26.6815 50.2876C25.5895 50.2876 24.5692 50.4725 23.6486 50.8371C22.7251 51.2028 21.9256 51.7049 21.2723 52.33C20.6481 52.9273 20.0918 53.6525 19.6188 54.4853C19.1628 55.288 18.7937 56.1253 18.522 56.9741C18.2595 57.7947 18.04 58.6923 17.8696 59.642C17.7004 60.5835 17.586 61.4765 17.5293 62.2968C17.4735 63.0989 17.4453 63.9336 17.4453 64.777C17.4453 66.9694 18.1423 68.7443 19.5166 70.0532C20.874 71.3449 22.6697 71.9999 24.8541 71.9999H45.0773C47.2611 71.9999 49.0568 71.3449 50.4145 70.0532C51.7892 68.7452 52.4861 66.9697 52.4861 64.7767C52.4858 63.9304 52.4573 63.0957 52.4012 62.2959V62.2959ZM48.7175 68.27C47.8206 69.1237 46.6299 69.5386 45.077 69.5386H24.8541C23.3009 69.5386 22.1102 69.1237 21.2136 68.2704C20.334 67.4331 19.9066 66.2901 19.9066 64.777C19.9066 63.99 19.9325 63.2129 19.9844 62.467C20.0351 61.7351 20.1386 60.9311 20.2921 60.0769C20.4436 59.2332 20.6365 58.4414 20.866 57.7245C21.0861 57.0372 21.3863 56.3566 21.7587 55.701C22.114 55.0762 22.5229 54.5401 22.9741 54.1081C23.3961 53.7041 23.928 53.3734 24.5548 53.1254C25.1345 52.8959 25.7859 52.7703 26.4931 52.7514C26.5793 52.7972 26.7328 52.8847 26.9814 53.0469C27.4874 53.3766 28.0706 53.7528 28.7153 54.1645C29.4421 54.6279 30.3784 55.0464 31.497 55.4075C32.6406 55.7773 33.807 55.965 34.9648 55.965C36.1225 55.965 37.2892 55.7773 38.4322 55.4078C39.5518 55.046 40.4878 54.6279 41.2155 54.1639C41.8752 53.7422 42.4421 53.3769 42.9481 53.0469C43.1967 52.885 43.3502 52.7972 43.4364 52.7514C44.1439 52.7703 44.7954 52.8959 45.3754 53.1254C46.0018 53.3734 46.5337 53.7044 46.9557 54.1081C47.4069 54.5398 47.8158 55.0758 48.1711 55.7013C48.5438 56.3566 48.8444 57.0375 49.0642 57.7242C49.2939 58.442 49.4872 59.2335 49.6384 60.0765C49.7916 60.9324 49.8954 61.7367 49.946 62.4673V62.4679C49.9983 63.211 50.0245 63.9878 50.0249 64.777C50.0245 66.2904 49.5971 67.4331 48.7175 68.27V68.27Z" />
</g>
<!--  separator text  -->
<g  style="fill: var(--text)">
    <rect width="1" height="350" transform="matrix(-1 0 0 1 78 -2)" />
    <rect x="92" y="63" width="197" height="1" />
    <rect x="92" y="119" width="197" height="1" />
    <rect x="92" y="185" width="197" height="1" />
</g>
</svg>
