<svg  viewBox="0 0 303 343" fill="none" xmlns="http://www.w3.org/2000/svg">
<g clip-path="url(#clip0)">
    <!--  background  -->
    <rect x="1.47388" y="0.5" width="301" height="342" rx="6.5"  style="fill: var(--background)"/>
    <!--  primary  -->
    <rect x="-3" width="313" height="77"  style="fill: var(--primary)"/>
    <!-- text primary   -->
    <g style="fill: var(--text-primary)">
        <rect x="22" y="21" width="162" height="9" rx="4.5" />
        <rect x="22" y="62" width="48" height="4" rx="2" />
        <rect x="22" y="36" width="33" height="4" rx="2" />
        <rect x="22" y="44" width="25" height="4" rx="2" />
        <rect x="86" y="62" width="48" height="4" rx="2" />
        <rect x="153" y="62" width="48" height="4" rx="2" />
        <rect width="38.6667" height="2.66667" rx="1.33333" transform="matrix(1 0 0 -1 244 13.6667)" />
    </g>
    <!--  text  -->
    <g style="fill: var(--text)">
        <rect x="167.33" y="98.7144" width="115.644" height="2.57143" rx="1.28571" />
        <rect x="167.33" y="124.428" width="115.644" height="2.57143" rx="1.28571" />
        <rect x="167.33" y="133.428" width="115.644" height="2.57143" rx="1.28571" />
        <rect x="167.33" y="148.428" width="115.644" height="2.57143" rx="1.28571" />
        <rect x="167.33" y="157.428" width="115.644" height="2.57143" rx="1.28571" />
        <rect x="167.33" y="166.428" width="115.644" height="2.57143" rx="1.28571" />
        <rect x="167.33" y="175.428" width="115.644" height="2.57143" rx="1.28571" />
        <rect x="167.33" y="184.428" width="115.644" height="2.57143" rx="1.28571" />
        <rect x="167.33" y="194.428" width="115.644" height="2.57143" rx="1.28571" />
        <rect x="167.33" y="204.428" width="115.644" height="2.57143" rx="1.28571" />
        <rect x="167.33" y="107.286" width="115.644" height="2.57143" rx="1.28571" />
        <rect x="167.33" y="115.857" width="115.644" height="2.57143" rx="1.28571" />
        <rect x="20.9739" y="98" width="92" height="6" rx="3" />
        <rect x="31.3301" y="111.714" width="115.644" height="2.57143" rx="1.28571" />
        <rect x="31.3301" y="137.428" width="115.644" height="2.57143" rx="1.28571" />
        <rect x="31.3301" y="147.428" width="115.644" height="2.57143" rx="1.28571" />
        <rect x="31.3301" y="120.286" width="115.644" height="2.57143" rx="1.28571" />
        <rect x="31.3301" y="128.857" width="115.644" height="2.57143" rx="1.28571" />
        <rect x="20.9739" y="268" width="92" height="6" rx="3" />
        <rect x="31.3301" y="281.714" width="115.644" height="2.57143" rx="1.28571" />
        <rect x="31.3301" y="307.428" width="115.644" height="2.57143" rx="1.28571" />
        <rect x="31.3301" y="317.428" width="115.644" height="2.57143" rx="1.28571" />
        <rect x="31.3301" y="290.286" width="115.644" height="2.57143" rx="1.28571" />
        <rect x="31.3301" y="298.857" width="115.644" height="2.57143" rx="1.28571" />
        <rect x="158.974" y="219" width="92" height="6" rx="3" />
        <rect x="169.33" y="232.714" width="115.644" height="2.57143" rx="1.28571" />
        <rect x="169.33" y="272.714" width="115.644" height="2.57143" rx="1.28571" />
        <rect x="169.33" y="258.428" width="115.644" height="2.57143" rx="1.28571" />
        <rect x="169.33" y="298.428" width="115.644" height="2.57143" rx="1.28571" />
        <rect x="169.33" y="241.286" width="115.644" height="2.57143" rx="1.28571" />
        <rect x="169.33" y="281.286" width="115.644" height="2.57143" rx="1.28571" />
        <rect x="169.33" y="249.857" width="115.644" height="2.57143" rx="1.28571" />
        <rect x="169.33" y="289.857" width="115.644" height="2.57143" rx="1.28571" />
        <rect x="18.9739" y="160" width="81.3474" height="6" rx="3" />
        <rect x="32.2371" y="174" width="33.1579" height="2" rx="1" />
        <rect x="32.2371" y="174" width="29.0132" height="2" rx="1" />
        <rect x="71.1976" y="174" width="29.0132" height="2" rx="1" />
        <rect x="110.932" y="174" width="33.6" height="2" rx="1" />
        <rect x="32.2371" y="190" width="29.0132" height="2" rx="1" />
        <rect x="71.1976" y="190" width="29.0132" height="2" rx="1" />
        <rect x="110.932" y="190" width="33.6" height="2" rx="1" />
        <rect x="32.2371" y="182" width="23.2105" height="2" rx="1" />
        <rect x="62.9082" y="182" width="29.0132" height="2" rx="1" />
        <path d="M123.421 183C123.421 182.448 123.869 182 124.421 182H143.145C143.697 182 144.145 182.448 144.145 183V183C144.145 183.552 143.697 184 143.145 184H124.421C123.869 184 123.421 183.552 123.421 183V183Z" />
        <path d="M96.066 183C96.066 182.448 96.5138 182 97.066 182H115.79C116.342 182 116.79 182.448 116.79 183V183C116.79 183.552 116.342 184 115.79 184H97.066C96.5138 184 96.066 183.552 96.066 183V183Z" />
        <rect x="32.2371" y="199" width="23.2105" height="2" rx="1" />
        <rect x="62.9082" y="199" width="29.0132" height="2" rx="1" />
        <path d="M124.25 200C124.25 199.448 124.698 199 125.25 199H143.974C144.526 199 144.974 199.448 144.974 200V200C144.974 200.552 144.526 201 143.974 201H125.25C124.698 201 124.25 200.552 124.25 200V200Z" />
        <path d="M96.066 200C96.066 199.448 96.5138 199 97.066 199H115.79C116.342 199 116.79 199.448 116.79 200V200C116.79 200.552 116.342 201 115.79 201H97.066C96.5138 201 96.066 200.552 96.066 200V200Z" />
        <rect x="18.9739" y="215" width="81.3474" height="6" rx="3" />
        <rect x="32.2371" y="229" width="33.1579" height="2" rx="1" />
        <rect x="32.2371" y="229" width="29.0132" height="2" rx="1" />
        <rect x="71.1976" y="229" width="29.0132" height="2" rx="1" />
        <rect x="110.932" y="229" width="33.6" height="2" rx="1" />
        <rect x="32.2371" y="245" width="29.0132" height="2" rx="1" />
        <rect x="71.1976" y="245" width="29.0132" height="2" rx="1" />
        <rect x="110.932" y="245" width="33.6" height="2" rx="1" />
        <rect x="32.2371" y="237" width="23.2105" height="2" rx="1" />
        <rect x="62.9082" y="237" width="29.0132" height="2" rx="1" />
        <path d="M123.421 238C123.421 237.448 123.869 237 124.421 237H143.145C143.697 237 144.145 237.448 144.145 238V238C144.145 238.552 143.697 239 143.145 239H124.421C123.869 239 123.421 238.552 123.421 238V238Z" />
        <path d="M96.066 238C96.066 237.448 96.5138 237 97.066 237H115.79C116.342 237 116.79 237.448 116.79 238V238C116.79 238.552 116.342 239 115.79 239H97.066C96.5138 239 96.066 238.552 96.066 238V238Z" />
        <rect x="32.2371" y="254" width="23.2105" height="2" rx="1" />
        <rect x="62.9082" y="254" width="29.0132" height="2" rx="1" />
        <path d="M124.25 255C124.25 254.448 124.698 254 125.25 254H143.974C144.526 254 144.974 254.448 144.974 255V255C144.974 255.552 144.526 256 143.974 256H125.25C124.698 256 124.25 255.552 124.25 255V255Z" />
        <path d="M96.066 255C96.066 254.448 96.5138 254 97.066 254H115.79C116.342 254 116.79 254.448 116.79 255V255C116.79 255.552 116.342 256 115.79 256H97.066C96.5138 256 96.066 255.552 96.066 255V255Z" />
    </g>
</g>
<!--  border  -->
<rect x="1.47388" y="0.5" width="301" height="342" rx="6.5" fill="none"  style="stroke: var(--border)"/>
<defs>
<clipPath id="clip0">
    <rect x="0" y="0" width="302" height="342" rx="6.5"/>
</clipPath>
</defs>
</svg>
