<svg id="line" height="512" viewBox="0 0 64 64" width="512" xmlns="http://www.w3.org/2000/svg">
    <path d="m54.072 62a3.932 3.932 0 0 0 3.928-3.928v-47.072a1 1 0 0 0 -.293-.707l-8-8a1 1 0 0 0 -.707-.293h-39.072a3.932 3.932 0 0 0 -3.928 3.928v52.144a3.932 3.932 0 0 0 3.928 3.928zm-36.072-58h28v16h-28zm-10 54.072v-52.144a1.93 1.93 0 0 1 1.928-1.928h6.072v17a1 1 0 0 0 1 1h30a1 1 0 0 0 1-1v-17h.586l7.414 7.414v46.658a1.93 1.93 0 0 1 -1.928 1.928h-44.144a1.93 1.93 0 0 1 -1.928-1.928z"/>
    <path d="m27 6h-6a1 1 0 0 0 -1 1v10a1 1 0 0 0 1 1h6a1 1 0 0 0 1-1v-10a1 1 0 0 0 -1-1zm-1 10h-4v-8h4z"/>
    <path d="m32 47a9 9 0 1 0 -9-9 9.01 9.01 0 0 0 9 9zm0-16a7 7 0 1 1 -7 7 7.008 7.008 0 0 1 7-7z"/>
    <path d="m31 37h2v2h-2z"/>
    <path d="m34.5 33.379h2v4.243h-2z" transform="matrix(.707 -.707 .707 .707 -14.705 35.5)"/>
    <path d="m11 55h2v2h-2z"/>
    <path d="m51 55h2v2h-2z"/>
</svg>